# xmcd CD database file
#
# Track frame offsets:
#	150
#	32753
#	80053
#	125365
#	164089
#	196582
#	214580
#	241986
#	264228
#	283884
#	309482
#
# Disc length: 4315 seconds
#
# Revision: 3
# Processed by: cddbd v1.5.1PL2 Copyright (c) Steve Scherf et al.
# Submitted via: CDex 1.51
#
DISCID=9810d90b
DTITLE=Various Artist - Soul of disco - Rare Tracks from the Disco Era
DYEAR=2004
DGENRE=Soul-Disco
TTITLE0=Tamiko Jones/Can't Live Without your Love
TTITLE1=Creative Source/Who Is He (and what is he to you)
TTITLE2=Demis Russos/L.O.V.E. Got A Hold On Me
TTITLE3=Idris Muhammad/Could Heaven Ever Be Like This
TTITLE4=Santana/One Chain (Don't Make No Prison)
TTITLE5=Bruce Johnston/Pipeline
TTITLE6=David Simmons/Will They Miss Me
TTITLE7=Michel Polnareff/Lipstick
TTITLE8=MFSB/Family Affair
TTITLE9=Lalo Schifrin/Jaws
TTITLE10=Andrea True Connection/More More More
EXTD=SIAE 4 029758 543825 YEAR: 2004
EXTT0=
EXTT1=
EXTT2=
EXTT3=
EXTT4=
EXTT5=
EXTT6=
EXTT7=
EXTT8=
EXTT9=
EXTT10=
PLAYORDER=
